<svg width="22" height="30" viewBox="0 0 22 30" fill="none" xmlns="http://www.w3.org/2000/svg">
<g clip-path="url(#clip0_243_62)">
<g filter="url(#filter0_f_243_62)">
<ellipse cx="10.8275" cy="28.4152" rx="3.17787" ry="1.71527" fill="black" fill-opacity="0.12"/>
</g>
<mask id="path-2-outside-1_243_62" maskUnits="userSpaceOnUse" x="1" y="1" width="20" height="29" fill="black">
<rect fill="white" x="1" y="1" width="20" height="29"/>
<path fill-rule="evenodd" clip-rule="evenodd" d="M19.6548 10.5764C19.6548 12.5148 18.9929 14.303 17.8767 15.7393C17.48 16.2756 16.9437 16.8463 16.35 17.478C14.2879 19.6722 11.5336 22.6028 11.5336 27.386C11.5336 27.7649 11.2264 28.0721 10.8475 28.0721H10.8274H10.8073C10.4284 28.0721 10.1212 27.7649 10.1212 27.386C10.1212 22.6028 7.367 19.6722 5.30487 17.478C4.71118 16.8463 4.17485 16.2756 3.77814 15.7393C2.66192 14.303 2 12.5148 2 10.5764C2 5.83976 5.95217 2 10.8274 2C15.7027 2 19.6548 5.83976 19.6548 10.5764Z"/>
</mask>
<path fill-rule="evenodd" clip-rule="evenodd" d="M19.6548 10.5764C19.6548 12.5148 18.9929 14.303 17.8767 15.7393C17.48 16.2756 16.9437 16.8463 16.35 17.478C14.2879 19.6722 11.5336 22.6028 11.5336 27.386C11.5336 27.7649 11.2264 28.0721 10.8475 28.0721H10.8274H10.8073C10.4284 28.0721 10.1212 27.7649 10.1212 27.386C10.1212 22.6028 7.367 19.6722 5.30487 17.478C4.71118 16.8463 4.17485 16.2756 3.77814 15.7393C2.66192 14.303 2 12.5148 2 10.5764C2 5.83976 5.95217 2 10.8274 2C15.7027 2 19.6548 5.83976 19.6548 10.5764Z" fill="#A5A6F6"/>
<path d="M17.8767 15.7393L17.0871 15.1257L17.0798 15.1351L17.0728 15.1446L17.8767 15.7393ZM16.35 17.478L17.0787 18.1628L16.35 17.478ZM5.30487 17.478L6.03357 16.7931L5.30487 17.478ZM3.77814 15.7393L4.58207 15.1446L4.57502 15.1351L4.56774 15.1257L3.77814 15.7393ZM18.6663 16.353C19.9125 14.7493 20.6548 12.7472 20.6548 10.5764H18.6548C18.6548 12.2824 18.0733 13.8567 17.0871 15.1257L18.6663 16.353ZM17.0787 18.1628C17.6598 17.5444 18.2416 16.9275 18.6806 16.3341L17.0728 15.1446C16.7184 15.6237 16.2275 16.1481 15.6213 16.7931L17.0787 18.1628ZM12.5336 27.386C12.5336 23.0358 15.0087 20.3654 17.0787 18.1628L15.6213 16.7931C13.567 18.979 10.5336 22.1698 10.5336 27.386H12.5336ZM10.8475 29.0721C11.7787 29.0721 12.5336 28.3172 12.5336 27.386H10.5336C10.5336 27.2126 10.6741 27.0721 10.8475 27.0721V29.0721ZM10.8274 29.0721H10.8475V27.0721H10.8274V29.0721ZM10.8073 29.0721H10.8274V27.0721H10.8073V29.0721ZM9.12123 27.386C9.12123 28.3172 9.87612 29.0721 10.8073 29.0721V27.0721C10.9807 27.0721 11.1212 27.2126 11.1212 27.386H9.12123ZM4.57617 18.1628C6.64618 20.3654 9.12123 23.0358 9.12123 27.386H11.1212C11.1212 22.1698 8.08781 18.979 6.03357 16.7931L4.57617 18.1628ZM2.97421 16.334C3.41323 16.9275 3.995 17.5444 4.57617 18.1628L6.03357 16.7931C5.42736 16.1481 4.93648 15.6237 4.58207 15.1446L2.97421 16.334ZM1 10.5764C1 12.7472 1.7423 14.7493 2.98855 16.353L4.56774 15.1257C3.58154 13.8567 3 12.2824 3 10.5764H1ZM10.8274 1C5.42728 1 1 5.26047 1 10.5764H3C3 6.41905 6.47706 3 10.8274 3V1ZM20.6548 10.5764C20.6548 5.26047 16.2276 1 10.8274 1V3C15.1778 3 18.6548 6.41905 18.6548 10.5764H20.6548Z" fill="url(#paint0_linear_243_62)" mask="url(#path-2-outside-1_243_62)"/>
<ellipse cx="10.8275" cy="10.5764" rx="3.17787" ry="3.08749" fill="black" fill-opacity="0.4"/>
</g>
<defs>
<filter id="filter0_f_243_62" x="5.64966" y="24.7" width="10.3557" height="7.43054" filterUnits="userSpaceOnUse" color-interpolation-filters="sRGB">
<feFlood flood-opacity="0" result="BackgroundImageFix"/>
<feBlend mode="normal" in="SourceGraphic" in2="BackgroundImageFix" result="shape"/>
<feGaussianBlur stdDeviation="1" result="effect1_foregroundBlur_243_62"/>
</filter>
<linearGradient id="paint0_linear_243_62" x1="10.8274" y1="2" x2="10.8274" y2="28.0721" gradientUnits="userSpaceOnUse">
<stop stop-color="white"/>
<stop offset="1" stop-color="white" stop-opacity="0.35"/>
</linearGradient>
<clipPath id="clip0_243_62">
<rect width="22" height="30" fill="white"/>
</clipPath>
</defs>
</svg>
