<svg width="38" height="33" viewBox="0 0 38 33" fill="none" xmlns="http://www.w3.org/2000/svg">
<path fill-rule="evenodd" clip-rule="evenodd" d="M4.33808 3.92153C3.1665 5.0931 3.1665 6.97872 3.1665 10.75V22.25C3.1665 26.0212 3.1665 27.9068 4.33808 29.0784C5.50965 30.25 7.39527 30.25 11.1665 30.25H26.8332C30.6044 30.25 32.49 30.25 33.6616 29.0784C34.8332 27.9068 34.8332 26.0212 34.8332 22.25V10.75C34.8332 7.44061 34.8332 5.58328 34.0415 4.38629V23.375C33.1725 23.375 32.738 23.375 32.3244 23.2865C31.9407 23.2045 31.5712 23.0664 31.2278 22.8768C30.8575 22.6724 30.5294 22.3875 29.8733 21.8177L27.9559 20.1526C26.7056 19.0668 26.0804 18.5238 25.3332 18.5238C24.586 18.5238 23.9608 19.0668 22.7104 20.1526L22.7104 20.1526L20.9573 21.675C20.0574 22.4565 19.6075 22.8473 19.1256 22.7503C18.6437 22.6533 18.38 22.1189 17.8525 21.0501L16.5445 18.3998C15.4896 16.2621 14.9621 15.1933 13.9984 14.9993C13.0346 14.8053 12.1347 15.5868 10.3348 17.1498L5.5415 21.3125V3.17798C5.06421 3.34869 4.67212 3.58749 4.33808 3.92153Z" fill="#7879F1"/>
<path d="M4.1665 10.75C4.1665 8.83611 4.16863 7.50129 4.30403 6.49416C4.43557 5.51579 4.67617 4.9977 5.04518 4.62868C5.4142 4.25966 5.9323 4.01907 6.91066 3.88753C7.9178 3.75212 9.25262 3.75 11.1665 3.75H26.8332C28.7471 3.75 30.0819 3.75212 31.089 3.88753C32.0674 4.01907 32.5855 4.25966 32.9545 4.62868C33.3235 4.9977 33.5641 5.51579 33.6956 6.49416C33.8311 7.50129 33.8332 8.83611 33.8332 10.75V22.25C33.8332 24.1639 33.8311 25.4987 33.6956 26.5058C33.5641 27.4842 33.3235 28.0023 32.9545 28.3713C32.5855 28.7403 32.0674 28.9809 31.089 29.1125C30.0819 29.2479 28.7471 29.25 26.8332 29.25H11.1665C9.25261 29.25 7.9178 29.2479 6.91066 29.1125C5.9323 28.9809 5.4142 28.7403 5.04518 28.3713C4.67617 28.0023 4.43557 27.4842 4.30403 26.5058C4.16863 25.4987 4.1665 24.1639 4.1665 22.25V10.75Z" stroke="#7879F1" stroke-width="2"/>
<ellipse cx="23.7502" cy="12.375" rx="3.16667" ry="2.75" fill="#7879F1"/>
</svg>
