<svg width="31" height="26" viewBox="0 0 31 26" fill="none" xmlns="http://www.w3.org/2000/svg">
<path fill-rule="evenodd" clip-rule="evenodd" d="M20.2028 14.4172C20.3022 14.0856 20.3551 13.7382 20.3551 13.3803C20.3551 11.0714 18.1541 9.19958 15.439 9.19958C15.0182 9.19958 14.6097 9.24456 14.2198 9.32915L16.6416 11.3887C17.4342 11.6593 17.9556 12.183 18.198 12.7123L20.2028 14.4172ZM12.9912 12.2224C12.6801 12.5963 12.5229 13.0165 12.5229 13.3803C12.5229 14.2932 13.5124 15.5611 15.439 15.5611C15.9083 15.5611 16.322 15.4859 16.6793 15.3589L18.3296 16.7624C17.5184 17.2647 16.5194 17.5611 15.439 17.5611C12.724 17.5611 10.5229 15.6893 10.5229 13.3803C10.5229 12.4616 10.8714 11.612 11.4621 10.9221L12.9912 12.2224Z" fill="#A5A6F6"/>
<path fill-rule="evenodd" clip-rule="evenodd" d="M21.1033 19.1212L19.444 17.7102C18.1903 18.281 16.8366 18.6514 15.4389 18.6514C13.4742 18.6514 11.5961 17.9194 9.96077 16.9276C8.32946 15.9383 6.99878 14.7259 6.14827 13.8542C6.02057 13.7234 5.92392 13.6242 5.84363 13.5364C5.77952 13.4663 5.73803 13.4166 5.71058 13.3803C5.73803 13.3439 5.77952 13.2942 5.84363 13.2241C5.92392 13.1364 6.02057 13.0372 6.14827 12.9063C6.99879 12.0346 8.32946 10.8223 9.96077 9.83289C10.0037 9.80685 10.0468 9.781 10.09 9.75533L8.48979 8.39444C6.86746 9.442 5.56316 10.6421 4.71679 11.5096L4.68062 11.5466C4.46355 11.7688 4.22498 12.0131 4.05228 12.2607C3.83709 12.5692 3.68579 12.9305 3.68579 13.3803C3.68579 13.83 3.83709 14.1913 4.05228 14.4998C4.22498 14.7474 4.46355 14.9917 4.68062 15.2139L4.68062 15.2139L4.71679 15.251C5.63734 16.1944 7.09962 17.5315 8.92363 18.6377C10.7437 19.7415 12.9832 20.6514 15.4389 20.6514C17.5245 20.6514 19.4541 19.9952 21.1033 19.1212ZM11.3721 6.90751C12.6254 6.42379 13.9948 6.10913 15.4389 6.10913C17.8947 6.10913 20.1342 7.01899 21.9542 8.12282C23.7783 9.22906 25.2405 10.5661 26.1611 11.5096L26.1973 11.5466L26.1973 11.5466C26.4143 11.7688 26.6529 12.0131 26.8256 12.2607C27.0408 12.5692 27.1921 12.9305 27.1921 13.3803C27.1921 13.83 27.0408 14.1913 26.8256 14.4998C26.6529 14.7474 26.4143 14.9917 26.1973 15.2139L26.1611 15.251C25.563 15.864 24.7362 16.6431 23.7302 17.4171L22.1686 16.089C23.2316 15.3088 24.1086 14.4907 24.7296 13.8542C24.8573 13.7234 24.954 13.6242 25.0342 13.5364C25.0984 13.4663 25.1398 13.4166 25.1673 13.3803C25.1398 13.3439 25.0984 13.2942 25.0342 13.2241C24.954 13.1364 24.8573 13.0372 24.7296 12.9063C23.8791 12.0346 22.5484 10.8223 20.9171 9.83289C19.2818 8.8411 17.4037 8.10913 15.4389 8.10913C14.661 8.10913 13.8966 8.22389 13.1555 8.4241L11.3721 6.90751Z" fill="#A5A6F6"/>
<path d="M6.83569 2.92834L26.5 19.6514" stroke="#A5A6F6" stroke-width="2"/>
</svg>
