<svg width="30" height="26" viewBox="0 0 30 26" fill="none" xmlns="http://www.w3.org/2000/svg">
<path d="M18.6666 12.6429C18.6666 14.279 17.0632 15.8572 14.7499 15.8572C12.4366 15.8572 10.8333 14.279 10.8333 12.6429C10.8333 11.0067 12.4366 9.42859 14.7499 9.42859C17.0632 9.42859 18.6666 11.0067 18.6666 12.6429Z" stroke="#A5A6F6" stroke-width="2"/>
<path d="M24.7715 11.4755C25.2631 11.9842 25.509 12.2386 25.509 12.6428C25.509 13.0471 25.2631 13.3014 24.7715 13.8102C23.0064 15.6369 19.1826 18.9643 14.75 18.9643C10.3174 18.9643 6.49364 15.6369 4.72848 13.8102C4.23685 13.3014 3.99103 13.0471 3.99103 12.6428C3.99103 12.2386 4.23685 11.9842 4.72848 11.4755C6.49364 9.64882 10.3174 6.32141 14.75 6.32141C19.1826 6.32141 23.0064 9.64882 24.7715 11.4755Z" stroke="#A5A6F6" stroke-width="2"/>
</svg>
