<svg width="284" height="284" viewBox="0 0 284 284" fill="none" xmlns="http://www.w3.org/2000/svg">
<path fill-rule="evenodd" clip-rule="evenodd" d="M23.6665 125.667C23.6665 77.5834 23.6665 53.5417 38.6041 38.6042C53.5416 23.6666 77.5832 23.6666 125.666 23.6666H158.333C206.416 23.6666 230.458 23.6666 245.396 38.6042C260.333 53.5417 260.333 77.5834 260.333 125.667V158.333C260.333 206.417 260.333 230.458 245.396 245.396C230.458 260.333 206.416 260.333 158.333 260.333H125.667C77.5833 260.333 53.5416 260.333 38.6041 245.396C23.6665 230.458 23.6665 206.417 23.6665 158.333V125.667ZM98.169 203.212C110.743 193.563 126.15 188.333 142 188.333C157.85 188.333 173.256 193.563 185.831 203.212C198.405 212.861 207.444 226.389 211.546 241.698C211.689 242.232 211.373 242.78 210.839 242.923C210.306 243.066 209.758 242.749 209.615 242.216C205.626 227.332 196.838 214.179 184.613 204.799C172.388 195.418 157.409 190.333 142 190.333C126.59 190.333 111.612 195.418 99.3866 204.799C87.1615 214.179 78.3733 227.332 74.385 242.216C74.2421 242.749 73.6938 243.066 73.1603 242.923C72.6268 242.78 72.3102 242.232 72.4532 241.698C76.5554 226.389 85.5946 212.861 98.169 203.212ZM107.5 106.5C107.5 87.4461 122.946 72 142 72C161.054 72 176.5 87.4461 176.5 106.5C176.5 125.554 161.054 141 142 141C122.946 141 107.5 125.554 107.5 106.5ZM142 70C121.841 70 105.5 86.3416 105.5 106.5C105.5 126.658 121.841 143 142 143C162.158 143 178.5 126.658 178.5 106.5C178.5 86.3416 162.158 70 142 70Z" fill="white"/>
<rect x="24.1665" y="24.1666" width="235.667" height="235.667" rx="2.5" stroke="white"/>
</svg>
